<svg width="60.000000" height="40.000000" viewBox="0 0 60 40" fill="none" xmlns="http://www.w3.org/2000/svg" xmlns:xlink="http://www.w3.org/1999/xlink">
	<desc>
			Created with Pixso.
	</desc>
	<defs/>
	<path id="Vector" d="M48.37 15.09C46.67 6.47 39.09 0 30 0C22.77 0 16.5 4.09 13.37 10.09C5.84 10.9 0 17.27 0 25C0 33.27 6.72 40 15 40L47.5 40C54.4 40 60 34.4 60 27.5C60 20.9 54.87 15.55 48.37 15.09ZM35 22.5L35 32.5L25 32.5L25 22.5L17.5 22.5L29.12 10.87C29.62 10.37 30.4 10.37 30.9 10.87L42.5 22.5L35 22.5Z" fill="#6FCF97" fill-opacity="1.000000" fill-rule="nonzero"/>
</svg>
